<svg width="21" height="34" viewBox="0 0 21 34" fill="none" xmlns="http://www.w3.org/2000/svg">
<path d="M18.4679 28.6277H5.65943C5.12126 28.6277 4.66806 28.291 4.54343 27.8143L1.80159 16.8937C1.75061 16.6813 1.80726 16.4586 1.95455 16.2876C2.1075 16.1166 2.32843 16.0182 2.56636 16.0182H15.3692C15.9073 16.0182 16.3662 16.3549 16.4852 16.8316L19.227 27.7522C19.2837 27.9646 19.227 28.1873 19.0797 28.3583C18.9324 28.5293 18.7058 28.6277 18.4679 28.6277Z" fill="white"/>
<path d="M5.65943 28.6277H18.4679C18.7058 28.6277 18.9324 28.5293 19.0797 28.3583C19.227 28.1873 19.2837 27.9646 19.227 27.7522L16.4852 16.8316C16.3662 16.3549 15.9073 16.0182 15.3692 16.0182H2.56636C2.32843 16.0182 2.1075 16.1166 1.95455 16.2876C1.80726 16.4586 1.75061 16.6813 1.80159 16.8937L4.54343 27.8143C4.66806 28.291 5.12126 28.6277 5.65943 28.6277ZM15.3069 22.3385C15.4371 23.473 15.0633 24.5143 14.2645 25.2707C13.5394 25.9545 12.531 26.3327 11.415 26.3327C11.3017 26.3327 11.1941 26.3275 11.0921 26.3223C8.62787 26.1669 6.41287 24.2139 6.16361 21.9655C6.03332 20.8309 6.40721 19.7897 7.20596 19.0333C7.93674 18.3391 8.93378 17.9713 10.0498 17.9713C10.1574 17.9713 10.265 17.9765 10.3783 17.9816C12.8426 18.1371 15.0519 20.0953 15.3069 22.3385Z" fill="#1FAAFF"/>
<path d="M10.0551 19.194C9.30737 19.194 8.63324 19.4375 8.16305 19.8882C7.64187 20.3803 7.39828 21.0745 7.48892 21.8464C7.68153 23.5301 9.3357 24.9962 11.1825 25.1102C11.2618 25.1154 11.3354 25.1154 11.4147 25.1154C12.1625 25.1154 12.831 24.8719 13.3012 24.4264C13.8223 23.9342 14.0603 23.24 13.9753 22.4681C13.7827 20.7844 12.1285 19.3183 10.2817 19.2044C10.1968 19.1992 10.1231 19.194 10.0551 19.194Z" fill="#1FAAFF"/>
<path d="M16.1505 13.7493V2.34168C16.1505 1.76664 15.635 1.2952 15.0062 1.2952H2.56029C1.93148 1.2952 1.41597 1.76664 1.41597 2.34168V13.7493C1.41597 14.3243 1.93148 14.7957 2.56029 14.7957H15.0062C15.635 14.7957 16.1505 14.3243 16.1505 13.7493ZM9.63016 7.95222C9.63583 8.53762 9.6245 9.12303 9.59617 9.68771C9.56785 10.3819 9.52253 10.9155 9.44888 11.4232C9.41489 11.6667 9.1713 11.8428 8.89938 11.8117C8.67845 11.7858 8.50283 11.6252 8.47451 11.4232C8.40653 10.9051 8.36121 10.356 8.32722 9.68771C8.30456 9.15411 8.29323 8.58425 8.29323 7.95222C8.2989 7.28393 8.31022 6.72961 8.33288 6.21673C8.35554 5.70386 8.3952 5.09773 8.46884 4.48124C8.49717 4.2533 8.71244 4.08234 8.95603 4.08234C8.97302 4.08234 8.99002 4.08234 9.00702 4.08752C9.23928 4.11343 9.41489 4.27402 9.43755 4.48124C9.51686 5.11845 9.55085 5.7453 9.57351 6.21673C9.61883 6.83322 9.6245 7.43934 9.63016 7.95222Z" fill="white"/>
<path d="M8.38398 11.4471C8.41231 11.6699 8.60491 11.8564 8.85984 11.8823C9.16008 11.9133 9.432 11.7217 9.47165 11.4471C9.55096 10.8669 9.59062 10.2867 9.61894 9.70643C9.64727 9.12621 9.6586 8.54599 9.65293 7.96576C9.64727 7.38554 9.6416 6.80532 9.61328 6.2251C9.58495 5.64487 9.5453 5.06465 9.47732 4.48443C9.44899 4.26167 9.25639 4.06999 8.9958 4.04408C8.69556 4.013 8.42364 4.20986 8.38965 4.48443C8.32167 5.06465 8.28201 5.64487 8.25369 6.2251C8.22536 6.80532 8.21403 7.38554 8.21403 7.96576C8.21403 8.54599 8.2197 9.12621 8.24802 9.70643C8.26502 10.2867 8.30467 10.8669 8.38398 11.4471Z" fill="black"/>
<path d="M0.0169959 33.4405C0.0226609 33.4664 0.0283251 33.4871 0.0339901 33.513C0.0396551 33.5338 0.0453197 33.5493 0.0566496 33.5648C0.0679795 33.5856 0.0736445 33.6063 0.0849744 33.627C0.0963043 33.6477 0.101969 33.6633 0.113299 33.6788C0.124629 33.6995 0.141625 33.7151 0.152955 33.7358C0.169949 33.7513 0.181279 33.7669 0.198274 33.7824C0.215268 33.798 0.232263 33.8135 0.254923 33.829C0.266253 33.8394 0.277583 33.8498 0.283248 33.8549C0.288913 33.8601 0.300244 33.8653 0.305909 33.8705C0.322904 33.8808 0.334233 33.886 0.351228 33.8964C0.373888 33.9119 0.402212 33.9223 0.424872 33.9327C0.436202 33.9378 0.453197 33.943 0.464527 33.9482C0.492852 33.9586 0.526842 33.9689 0.555167 33.9741C0.566497 33.9793 0.577827 33.9793 0.589157 33.9845C0.634477 33.9948 0.679796 34 0.725116 34H16.7966C16.8079 34 16.8249 33.9948 16.8363 33.9948C16.8702 33.9948 16.9099 33.9896 16.9496 33.9845C16.9666 33.9793 16.9835 33.9741 17.0005 33.9689C17.0345 33.9586 17.0629 33.9534 17.0912 33.9378C17.1138 33.9327 17.1252 33.9223 17.1478 33.9119C17.1762 33.8964 17.1988 33.886 17.2271 33.8653C17.2441 33.8549 17.2611 33.8394 17.2781 33.829C17.3008 33.8083 17.3234 33.7876 17.3461 33.7669C17.3574 33.7565 17.3631 33.7513 17.3744 33.741L20.847 29.6224C20.8527 29.6172 20.8527 29.6121 20.8584 29.6017C20.8754 29.581 20.8867 29.5603 20.898 29.5395C20.9094 29.524 20.9207 29.5136 20.9264 29.4981C20.9264 29.4929 20.932 29.4877 20.932 29.4826C20.9433 29.4618 20.949 29.4463 20.9547 29.4256C20.9603 29.4049 20.9717 29.3841 20.9773 29.3634C20.9773 29.3582 20.983 29.353 20.983 29.3479C20.9887 29.3323 20.9887 29.3168 20.9887 29.3012C20.9943 29.2753 20.9943 29.2546 21 29.2287C21 29.2183 21 29.2132 21 29.208C21 29.2028 21 29.1976 21 29.1924C21 29.1821 21 29.1769 20.9943 29.1717C20.9943 29.151 20.9887 29.1251 20.9887 29.0992C20.9887 29.0888 20.983 29.0785 20.983 29.0681V29.0629L18.3998 18.764C17.822 16.469 17.533 14.117 17.533 11.765V0.663108C17.533 0.642385 17.5387 0.616486 17.5387 0.595764C17.5387 0.259028 17.2555 0 16.8816 0H0.725116C0.322904 0 0 0.295288 0 0.663108V33.3317C0 33.3473 0.0056653 33.3628 0.0056653 33.3783C0.0113303 33.4042 0.011331 33.425 0.0169959 33.4405ZM16.417 16.8264L19.1589 27.7471C19.2665 28.1615 18.9153 28.5604 18.4508 28.5604H5.6423C5.13245 28.5604 4.69625 28.2392 4.58295 27.7885L1.84111 16.8679C1.73914 16.4535 2.0847 16.0546 2.54923 16.0546H15.3577C15.8619 16.0546 16.3037 16.3757 16.417 16.8264ZM1.45589 2.32607C1.45589 1.77693 1.94308 1.3314 2.54357 1.3314H14.9895C15.59 1.3314 16.0772 1.77693 16.0772 2.32607V13.7337C16.0772 14.2828 15.59 14.7283 14.9895 14.7283H2.54357C1.94308 14.7283 1.45589 14.2828 1.45589 13.7337V2.32607Z" fill="black"/>
</svg>
