<svg width="180" height="32" viewBox="0 0 180 32" fill="none" xmlns="http://www.w3.org/2000/svg">
<g clip-path="url(#clip0_25_1051)">
<path d="M94.748 23.4625C91.206 23.4625 88.8447 20.9482 88.8447 17.1219C88.8447 13.2519 91.2498 10.7812 94.7043 10.7812C97.9402 10.7812 100.411 12.924 100.411 16.4879V17.7778H90.9218C91.0748 20.0299 92.4523 21.7571 94.748 21.7571C96.4097 21.7571 97.6997 20.8607 98.1807 19.4395H100.302C99.7987 21.8009 97.6122 23.4625 94.748 23.4625ZM90.9655 16.0943H98.3557C98.3557 13.9516 97 12.4867 94.7699 12.4867C92.4523 12.4867 91.2279 14.0609 90.9655 16.0943Z" fill="white"/>
<path d="M80.7925 23.4626C77.95 23.4626 75.1733 21.2761 75.1733 17.1219C75.1733 12.9677 77.95 10.7813 80.7925 10.7813C82.8259 10.7813 84.5313 11.8745 85.2747 13.6674H85.3183C85.2746 13.2082 85.2747 12.8147 85.2747 12.3555V6.05859H87.2424V23.1346H85.2965V21.8883C85.2965 21.4292 85.2965 21.0356 85.3183 20.5765H85.2747C84.5313 22.3694 82.8259 23.4626 80.7925 23.4626ZM77.2286 17.1219C77.2286 19.8768 78.8902 21.7572 81.2735 21.7572C83.6567 21.7572 85.2965 19.8768 85.2965 17.1219C85.2965 14.367 83.6567 12.4867 81.2735 12.4867C78.8902 12.4867 77.2286 14.367 77.2286 17.1219Z" fill="white"/>
<path d="M68.1968 23.4625C64.8735 23.4625 62.2279 21.1668 62.2279 17.1219C62.2279 13.077 64.8735 10.7812 68.1968 10.7812C71.5202 10.7812 74.1657 13.077 74.1657 17.1219C74.1657 21.1668 71.5202 23.4625 68.1968 23.4625ZM64.2831 17.1219C64.2831 20.1829 66.0104 21.7571 68.1968 21.7571C70.3832 21.7571 72.1105 20.1829 72.1105 17.1219C72.1105 14.0609 70.3832 12.4867 68.1968 12.4867C66.0104 12.4867 64.2831 14.0609 64.2831 17.1219Z" fill="white"/>
<path d="M55.8068 23.4625C52.2429 23.4625 49.8378 20.9701 49.8378 17.1219C49.8378 13.2738 52.0679 10.7812 55.8068 10.7812C59.2176 10.7812 61.098 12.9895 61.3603 15.7007H59.3051C59.1739 13.9734 57.9494 12.4867 55.8068 12.4867C53.3798 12.4867 51.8931 14.4107 51.8931 17.1219C51.8931 19.9861 53.5985 21.7571 55.8068 21.7571C57.9277 21.7571 59.1083 20.1173 59.3051 18.7836H61.3603C61.0324 21.2543 59.1083 23.4625 55.8068 23.4625Z" fill="white"/>
<path d="M42.8406 23.4625C39.5172 23.4625 36.8716 21.1668 36.8716 17.1219C36.8716 13.077 39.5172 10.7812 42.8406 10.7812C46.164 10.7812 48.8096 13.077 48.8096 17.1219C48.8096 21.1668 46.164 23.4625 42.8406 23.4625ZM38.9269 17.1219C38.9269 20.1829 40.6542 21.7571 42.8406 21.7571C45.027 21.7571 46.7544 20.1829 46.7544 17.1219C46.7544 14.0609 45.027 12.4867 42.8406 12.4867C40.6542 12.4867 38.9269 14.0609 38.9269 17.1219Z" fill="white"/>
<path d="M32.4737 23.1342L24.3401 10.5621H24.2964L24.3182 13.1859V23.1342H22.2848V7.8291H25.0179L33.1514 20.3792H33.1951L33.1733 17.7555V7.8291H35.1849V23.1342H32.4737Z" fill="white"/>
<path d="M164.839 27.5379L165.277 25.5483H168.512L170.48 22.5091L168.36 11.1396H170.787L172.186 19.7541H172.23L177.28 11.1396H179.992L170.48 26.7071C170.065 27.363 169.715 27.5379 168.994 27.5379H164.839Z" fill="white"/>
<path d="M159.418 23.165L161.977 11.1396H164.295L163.88 13.1293H163.922C164.731 11.7737 165.497 11.1396 167.268 11.1396H168.558L168.121 13.1293H166.7C164.819 13.1293 163.683 14.3537 163.201 16.4746L161.78 23.165H159.418Z" fill="white"/>
<path d="M152.107 23.517C149.134 23.517 147.057 21.746 147.057 18.4663C147.057 14.5527 149.987 10.792 154.337 10.792C157.312 10.792 159.388 12.563 159.388 15.8426C159.388 19.8001 156.459 23.517 152.107 23.517ZM149.528 18.7506C149.528 20.6747 150.664 21.5711 152.239 21.5711C155.321 21.5711 156.918 18.1166 156.918 15.5584C156.918 13.6343 155.781 12.7379 154.207 12.7379C151.146 12.7379 149.528 16.1925 149.528 18.7506Z" fill="white"/>
<path d="M143.072 23.1664C140.93 23.1664 140.033 21.767 140.448 19.8211L141.847 13.1306H139.486L139.902 11.141H142.263L142.963 7.86133H145.39L144.69 11.141H148.407L147.991 13.1306H144.274L142.831 19.9305C142.634 20.8487 142.919 21.1767 143.903 21.1767H146.373L145.936 23.1664H143.072Z" fill="white"/>
<path d="M132.02 23.517C128.915 23.517 126.969 21.6585 126.969 18.4663C126.969 14.6401 129.702 10.792 134.272 10.792C137.507 10.792 139.431 12.6723 139.103 15.7334H136.655C136.917 14.1154 136.152 12.7379 134.162 12.7379C131.079 12.7379 129.44 16.2143 129.44 18.6632C129.44 20.6309 130.51 21.5711 132.063 21.5711C134.14 21.5711 135.452 19.9969 135.955 18.8162H138.491C137.594 21.5055 135.299 23.517 132.02 23.517Z" fill="white"/>
<path d="M122.454 20.8058C121.295 22.7955 119.634 23.517 118.059 23.517C115.961 23.517 114.321 22.2052 114.321 19.9312C114.321 17.4825 116.158 15.9082 119.262 15.9082H121.58C123.241 15.9082 123.701 15.0118 123.701 14.2466C123.701 13.3283 123.111 12.7379 121.623 12.7379C119.896 12.7379 118.781 13.5688 118.453 15.0337H115.851C116.529 12.3444 118.628 10.792 121.71 10.792C124.75 10.792 126.63 12.3225 125.953 15.4928L124.881 20.5435C124.771 21.0027 124.881 21.1775 125.428 21.1775H125.996L125.58 23.1672H124.028C122.673 23.1672 122.17 22.3582 122.41 21.2431L122.498 20.8058H122.454ZM116.77 19.7564C116.77 20.8496 117.601 21.5493 118.89 21.5493C120.705 21.5493 122.498 20.2155 123.089 17.5699L123.328 16.4767H123.285C122.848 17.2419 122.126 17.7011 120.64 17.723L119.459 17.7449C117.404 17.7667 116.77 18.7724 116.77 19.7564Z" fill="white"/>
<path d="M103.341 23.1664L106.599 7.86133H117.378L116.94 9.89471H108.719L107.757 14.4643H115.126L114.688 16.4977H107.32L105.899 23.1664H103.341Z" fill="white"/>
<path d="M12.2361 21.6946H3.75043C3.39389 21.6946 3.09364 21.4938 3.01107 21.2096L1.19459 14.6979C1.16081 14.5711 1.19834 14.4383 1.29592 14.3364C1.39726 14.2345 1.54362 14.1758 1.70125 14.1758H10.1832C10.5397 14.1758 10.8437 14.3766 10.9225 14.6608L12.7391 21.1725C12.7765 21.2992 12.7391 21.4321 12.6414 21.534C12.5439 21.6359 12.3937 21.6946 12.2361 21.6946Z" fill="white"/>
<path d="M3.75043 21.6946H12.2361C12.3937 21.6946 12.5439 21.6359 12.6414 21.534C12.7391 21.4321 12.7765 21.2992 12.7391 21.1725L10.9225 14.6608C10.8437 14.3766 10.5397 14.1758 10.1832 14.1758H1.70125C1.54362 14.1758 1.39726 14.2345 1.29592 14.3364C1.19834 14.4383 1.16081 14.5711 1.19459 14.6979L3.01107 21.2096C3.09364 21.4938 3.39389 21.6946 3.75043 21.6946ZM10.1419 17.9445C10.2282 18.6209 9.98054 19.2418 9.45136 19.6929C8.97097 20.1006 8.30292 20.3261 7.56356 20.3261C7.4885 20.3261 7.41719 20.3231 7.34964 20.3199C5.71705 20.2273 4.24959 19.0627 4.08446 17.7221C3.99813 17.0455 4.24584 16.4246 4.77502 15.9737C5.25917 15.5597 5.91972 15.3403 6.65907 15.3403C6.73038 15.3403 6.80168 15.3435 6.87675 15.3465C8.50934 15.4392 9.97303 16.6069 10.1419 17.9445Z" fill="#1FAAFF"/>
<path d="M6.66448 16.0664C6.16907 16.0664 5.72245 16.2117 5.41095 16.4804C5.06566 16.7738 4.90428 17.1877 4.96434 17.648C5.09194 18.652 6.18784 19.5262 7.41134 19.5942C7.46388 19.5972 7.51268 19.5972 7.56521 19.5972C8.06062 19.5972 8.50348 19.4521 8.81499 19.1864C9.16027 18.8929 9.3179 18.479 9.26161 18.0188C9.13401 17.0148 8.0381 16.1406 6.8146 16.0726C6.7583 16.0695 6.70951 16.0664 6.66448 16.0664Z" fill="#1FAAFF"/>
<path d="M10.7014 12.8226V6.02048C10.7014 5.6776 10.3599 5.39648 9.94333 5.39648H1.69782C1.28123 5.39648 0.939697 5.6776 0.939697 6.02048V12.8226C0.939697 13.1655 1.28123 13.4466 1.69782 13.4466H9.94333C10.3599 13.4466 10.7014 13.1655 10.7014 12.8226ZM6.38166 9.36594C6.38541 9.71501 6.37791 10.0641 6.35914 10.4008C6.34038 10.8147 6.31035 11.1329 6.26157 11.4356C6.23905 11.5808 6.07766 11.6858 5.89752 11.6673C5.75114 11.6519 5.6348 11.5561 5.61604 11.4356C5.57099 11.1267 5.54097 10.7993 5.51845 10.4008C5.50344 10.0826 5.49594 9.74281 5.49594 9.36594C5.49968 8.96745 5.50719 8.63692 5.52221 8.3311C5.53721 8.02529 5.56349 7.66387 5.61228 7.29627C5.63104 7.16035 5.77366 7.05841 5.93504 7.05841C5.9463 7.05841 5.95756 7.05841 5.96882 7.06149C6.12269 7.07694 6.23905 7.17271 6.25405 7.29627C6.3066 7.67623 6.32912 8.05 6.34413 8.3311C6.37415 8.6987 6.37791 9.06012 6.38166 9.36594Z" fill="black"/>
<path d="M5.56078 11.4494C5.57954 11.5822 5.70715 11.6935 5.87604 11.7089C6.07495 11.7274 6.25509 11.6131 6.28137 11.4494C6.33392 11.1034 6.36018 10.7575 6.37895 10.4115C6.39771 10.0655 6.40523 9.71953 6.40147 9.37356C6.39771 9.02758 6.39397 8.6816 6.37519 8.33563C6.35643 7.98965 6.33016 7.64367 6.28513 7.29771C6.26635 7.16487 6.13875 7.05057 5.96611 7.03513C5.7672 7.01659 5.58705 7.13398 5.56453 7.29771C5.5195 7.64367 5.49322 7.98965 5.47446 8.33563C5.4557 8.6816 5.44818 9.02758 5.44818 9.37356C5.44818 9.71953 5.45194 10.0655 5.4707 10.4115C5.48196 10.7575 5.50824 11.1034 5.56078 11.4494Z" fill="white"/>
<path d="M0.0112599 24.563C0.015013 24.5784 0.0187656 24.5908 0.0225187 24.6063C0.0262717 24.6186 0.0300246 24.6279 0.0375307 24.6371C0.0450369 24.6495 0.04879 24.6618 0.0562962 24.6742C0.0638024 24.6865 0.0675554 24.6958 0.0750616 24.7051C0.0825677 24.7175 0.0938274 24.7267 0.101334 24.7391C0.112593 24.7484 0.120099 24.7576 0.131358 24.7669C0.142617 24.7761 0.153876 24.7854 0.168888 24.7946C0.176395 24.8009 0.1839 24.8071 0.187654 24.8101C0.191407 24.8133 0.198914 24.8163 0.202667 24.8194C0.213926 24.8256 0.221432 24.8286 0.232691 24.8348C0.247704 24.8441 0.266468 24.8503 0.281481 24.8565C0.288987 24.8595 0.300246 24.8627 0.307753 24.8657C0.326518 24.8719 0.349037 24.878 0.367803 24.8812C0.375308 24.8842 0.382815 24.8842 0.390321 24.8874C0.420346 24.8935 0.45037 24.8967 0.480395 24.8967H0.484148H11.1241H11.1279C11.1354 24.8967 11.1466 24.8935 11.1541 24.8935C11.1766 24.8935 11.2029 24.8905 11.2292 24.8874C11.2405 24.8842 11.2518 24.8812 11.263 24.878C11.2855 24.8719 11.3043 24.8688 11.323 24.8595C11.338 24.8565 11.3455 24.8503 11.3606 24.8441C11.3793 24.8348 11.3943 24.8286 11.4132 24.8163C11.4243 24.8101 11.4357 24.8009 11.4468 24.7946C11.4619 24.7823 11.4769 24.7699 11.492 24.7576C11.4994 24.7514 11.5032 24.7484 11.5107 24.7422L13.8113 22.2864C13.8151 22.2832 13.8151 22.2802 13.8189 22.274C13.8301 22.2617 13.8376 22.2493 13.8451 22.237C13.8526 22.2276 13.8601 22.2215 13.8639 22.2123C13.8639 22.2091 13.8676 22.2061 13.8676 22.2029C13.8752 22.1906 13.8788 22.1813 13.8826 22.1689C13.8864 22.1566 13.8939 22.1442 13.8977 22.1319C13.8977 22.1289 13.9014 22.1257 13.9014 22.1227C13.9051 22.1134 13.9051 22.1041 13.9051 22.0948C13.9089 22.0794 13.9089 22.067 13.9126 22.0516C13.9126 22.0454 13.9126 22.0423 13.9126 22.0393C13.9126 22.0361 13.9126 22.0331 13.9126 22.03C13.9126 22.0238 13.9126 22.0206 13.9089 22.0176C13.9089 22.0053 13.9051 21.9898 13.9051 21.9744C13.9051 21.9682 13.9014 21.962 13.9014 21.9559V21.9527L12.19 15.8117C11.8072 14.4432 11.6158 13.0408 11.6158 11.6383V5.01844C11.6158 5.00609 11.6195 4.99065 11.6195 4.97829C11.6195 4.7775 11.4319 4.62305 11.1842 4.62305H0.480395C0.213926 4.62305 0 4.79912 0 5.01844V24.4982C0 24.5074 0.0037533 24.5167 0.0037533 24.5259C0.00750639 24.5414 0.00750684 24.5537 0.0112599 24.563ZM10.8764 14.6563L12.6929 21.1682C12.7642 21.4152 12.5316 21.6531 12.2238 21.6531H3.73807C3.40029 21.6531 3.1113 21.4616 3.03624 21.1929L1.21975 14.681C1.1522 14.434 1.38113 14.1961 1.68888 14.1961H10.1746C10.5087 14.1961 10.8014 14.3876 10.8764 14.6563ZM0.964542 6.01004C0.964542 5.6826 1.2873 5.41693 1.68513 5.41693H9.93064C10.3285 5.41693 10.6512 5.6826 10.6512 6.01004V12.8122C10.6512 13.1396 10.3285 13.4053 9.93064 13.4053H1.68513C1.2873 13.4053 0.964542 13.1396 0.964542 12.8122V6.01004Z" fill="white"/>
</g>
<defs>
<clipPath id="clip0_25_1051">
<rect width="180" height="32" fill="white"/>
</clipPath>
</defs>
</svg>
