<svg width="184" height="34" viewBox="0 0 184 34" fill="none" xmlns="http://www.w3.org/2000/svg">
<path d="M18.4679 28.6277H5.65943C5.12126 28.6277 4.66806 28.291 4.54343 27.8143L1.80159 16.8937C1.75061 16.6813 1.80726 16.4586 1.95455 16.2876C2.1075 16.1166 2.32843 16.0182 2.56636 16.0182H15.3692C15.9073 16.0182 16.3662 16.3549 16.4852 16.8316L19.227 27.7522C19.2837 27.9646 19.227 28.1873 19.0797 28.3583C18.9324 28.5293 18.7058 28.6277 18.4679 28.6277Z" fill="white"/>
<path d="M5.65943 28.6277H18.4679C18.7058 28.6277 18.9324 28.5293 19.0797 28.3583C19.227 28.1873 19.2837 27.9646 19.227 27.7522L16.4852 16.8316C16.3662 16.3549 15.9073 16.0182 15.3692 16.0182H2.56636C2.32843 16.0182 2.1075 16.1166 1.95455 16.2876C1.80726 16.4586 1.75061 16.6813 1.80159 16.8937L4.54343 27.8143C4.66806 28.291 5.12126 28.6277 5.65943 28.6277ZM15.3069 22.3385C15.4371 23.473 15.0633 24.5143 14.2645 25.2707C13.5394 25.9545 12.531 26.3327 11.415 26.3327C11.3017 26.3327 11.1941 26.3275 11.0921 26.3223C8.62787 26.1669 6.41287 24.2139 6.16361 21.9655C6.03332 20.8309 6.40721 19.7897 7.20596 19.0333C7.93674 18.3391 8.93378 17.9713 10.0498 17.9713C10.1574 17.9713 10.265 17.9765 10.3783 17.9816C12.8426 18.1371 15.0519 20.0953 15.3069 22.3385Z" fill="#1FAAFF"/>
<path d="M10.0551 19.194C9.30737 19.194 8.63324 19.4375 8.16305 19.8882C7.64187 20.3803 7.39828 21.0745 7.48892 21.8464C7.68153 23.5301 9.3357 24.9962 11.1825 25.1102C11.2618 25.1154 11.3354 25.1154 11.4147 25.1154C12.1625 25.1154 12.831 24.8719 13.3012 24.4264C13.8223 23.9342 14.0603 23.24 13.9753 22.4681C13.7827 20.7844 12.1285 19.3183 10.2817 19.2044C10.1968 19.1992 10.1231 19.194 10.0551 19.194Z" fill="#1FAAFF"/>
<path d="M16.1505 13.7493V2.34168C16.1505 1.76664 15.635 1.2952 15.0062 1.2952H2.56029C1.93148 1.2952 1.41597 1.76664 1.41597 2.34168V13.7493C1.41597 14.3243 1.93148 14.7957 2.56029 14.7957H15.0062C15.635 14.7957 16.1505 14.3243 16.1505 13.7493ZM9.63016 7.95222C9.63583 8.53762 9.6245 9.12303 9.59617 9.68771C9.56785 10.3819 9.52253 10.9155 9.44888 11.4232C9.41489 11.6667 9.1713 11.8428 8.89938 11.8117C8.67845 11.7858 8.50283 11.6252 8.47451 11.4232C8.40653 10.9051 8.36121 10.356 8.32722 9.68771C8.30456 9.15411 8.29323 8.58425 8.29323 7.95222C8.2989 7.28393 8.31022 6.72961 8.33288 6.21673C8.35554 5.70386 8.3952 5.09773 8.46884 4.48124C8.49717 4.2533 8.71244 4.08234 8.95603 4.08234C8.97302 4.08234 8.99002 4.08234 9.00702 4.08752C9.23928 4.11343 9.41489 4.27402 9.43755 4.48124C9.51686 5.11845 9.55085 5.7453 9.57351 6.21673C9.61883 6.83322 9.6245 7.43934 9.63016 7.95222Z" fill="white"/>
<path d="M8.38398 11.4471C8.41231 11.6699 8.60491 11.8564 8.85984 11.8823C9.16008 11.9133 9.432 11.7217 9.47165 11.4471C9.55096 10.8669 9.59062 10.2867 9.61894 9.70643C9.64727 9.12621 9.6586 8.54599 9.65293 7.96576C9.64727 7.38554 9.6416 6.80532 9.61328 6.2251C9.58495 5.64487 9.5453 5.06465 9.47732 4.48443C9.44899 4.26167 9.25639 4.06999 8.9958 4.04408C8.69556 4.013 8.42364 4.20986 8.38965 4.48443C8.32167 5.06465 8.28201 5.64487 8.25369 6.2251C8.22536 6.80532 8.21403 7.38554 8.21403 7.96576C8.21403 8.54599 8.2197 9.12621 8.24802 9.70643C8.26502 10.2867 8.30467 10.8669 8.38398 11.4471Z" fill="black"/>
<path d="M0.0169959 33.4405C0.0226609 33.4664 0.0283251 33.4871 0.0339901 33.513C0.0396551 33.5338 0.0453197 33.5493 0.0566496 33.5648C0.0679795 33.5856 0.0736445 33.6063 0.0849744 33.627C0.0963043 33.6477 0.101969 33.6633 0.113299 33.6788C0.124629 33.6995 0.141625 33.7151 0.152955 33.7358C0.169949 33.7513 0.181279 33.7669 0.198274 33.7824C0.215268 33.798 0.232263 33.8135 0.254923 33.829C0.266253 33.8394 0.277583 33.8498 0.283248 33.8549C0.288913 33.8601 0.300244 33.8653 0.305909 33.8705C0.322904 33.8808 0.334233 33.886 0.351228 33.8964C0.373888 33.9119 0.402212 33.9223 0.424872 33.9327C0.436202 33.9378 0.453197 33.943 0.464527 33.9482C0.492852 33.9586 0.526842 33.9689 0.555167 33.9741C0.566497 33.9793 0.577827 33.9793 0.589157 33.9845C0.634477 33.9948 0.679796 34 0.725116 34H16.7966C16.8079 34 16.8249 33.9948 16.8363 33.9948C16.8702 33.9948 16.9099 33.9896 16.9496 33.9845C16.9666 33.9793 16.9835 33.9741 17.0005 33.9689C17.0345 33.9586 17.0629 33.9534 17.0912 33.9378C17.1138 33.9327 17.1252 33.9223 17.1478 33.9119C17.1762 33.8964 17.1988 33.886 17.2271 33.8653C17.2441 33.8549 17.2611 33.8394 17.2781 33.829C17.3008 33.8083 17.3234 33.7876 17.3461 33.7669C17.3574 33.7565 17.3631 33.7513 17.3744 33.741L20.847 29.6224C20.8527 29.6172 20.8527 29.6121 20.8584 29.6017C20.8754 29.581 20.8867 29.5603 20.898 29.5395C20.9094 29.524 20.9207 29.5136 20.9264 29.4981C20.9264 29.4929 20.932 29.4877 20.932 29.4826C20.9433 29.4618 20.949 29.4463 20.9547 29.4256C20.9603 29.4049 20.9717 29.3841 20.9773 29.3634C20.9773 29.3582 20.983 29.353 20.983 29.3479C20.9887 29.3323 20.9887 29.3168 20.9887 29.3012C20.9943 29.2753 20.9943 29.2546 21 29.2287C21 29.2183 21 29.2132 21 29.208C21 29.2028 21 29.1976 21 29.1924C21 29.1821 21 29.1769 20.9943 29.1717C20.9943 29.151 20.9887 29.1251 20.9887 29.0992C20.9887 29.0888 20.983 29.0785 20.983 29.0681V29.0629L18.3998 18.764C17.822 16.469 17.533 14.117 17.533 11.765V0.663108C17.533 0.642385 17.5387 0.616486 17.5387 0.595764C17.5387 0.259028 17.2555 0 16.8816 0H0.725116C0.322904 0 0 0.295288 0 0.663108V33.3317C0 33.3473 0.0056653 33.3628 0.0056653 33.3783C0.0113303 33.4042 0.011331 33.425 0.0169959 33.4405ZM16.417 16.8264L19.1589 27.7471C19.2665 28.1615 18.9153 28.5604 18.4508 28.5604H5.6423C5.13245 28.5604 4.69625 28.2392 4.58295 27.7885L1.84111 16.8679C1.73914 16.4535 2.0847 16.0546 2.54923 16.0546H15.3577C15.8619 16.0546 16.3037 16.3757 16.417 16.8264ZM1.45589 2.32607C1.45589 1.77693 1.94308 1.3314 2.54357 1.3314H14.9895C15.59 1.3314 16.0772 1.77693 16.0772 2.32607V13.7337C16.0772 14.2828 15.59 14.7283 14.9895 14.7283H2.54357C1.94308 14.7283 1.45589 14.2828 1.45589 13.7337V2.32607Z" fill="black"/>
<path d="M33.5219 11.1572H33.4808L33.5013 13.6287V23H31.5859V8.58269H34.1604L41.8222 20.4049H41.8634L41.8428 17.9333V8.58269H43.7376V23H41.1837L33.5219 11.1572ZM51.3611 23.3089C50.3038 23.3089 49.3495 23.0755 48.4982 22.6087C47.6469 22.1281 46.9741 21.4416 46.4798 20.5491C45.9855 19.6428 45.7384 18.5718 45.7384 17.3361C45.7384 16.1003 45.9855 15.0362 46.4798 14.1437C46.9741 13.2374 47.6469 12.5509 48.4982 12.084C49.3495 11.6035 50.3038 11.3632 51.3611 11.3632C52.4184 11.3632 53.3727 11.6035 54.224 12.084C55.0753 12.5509 55.7481 13.2374 56.2424 14.1437C56.7367 15.0362 56.9839 16.1003 56.9839 17.3361C56.9839 18.5718 56.7367 19.6428 56.2424 20.5491C55.7481 21.4416 55.0753 22.1281 54.224 22.6087C53.3727 23.0755 52.4184 23.3089 51.3611 23.3089ZM51.3611 21.7024C52.0614 21.7024 52.6861 21.5377 53.2354 21.2081C53.7983 20.8649 54.2377 20.3706 54.5535 19.7252C54.8831 19.0661 55.0478 18.2697 55.0478 17.3361C55.0478 16.4024 54.8831 15.6128 54.5535 14.9675C54.2377 14.3084 53.7983 13.8141 53.2354 13.4846C52.6861 13.1413 52.0614 12.9697 51.3611 12.9697C50.6608 12.9697 50.0292 13.1413 49.4663 13.4846C48.917 13.8141 48.4776 14.3084 48.1481 14.9675C47.8323 15.6128 47.6744 16.4024 47.6744 17.3361C47.6744 18.2697 47.8323 19.0661 48.1481 19.7252C48.4776 20.3706 48.917 20.8649 49.4663 21.2081C50.0292 21.5377 50.6608 21.7024 51.3611 21.7024ZM63.9875 23.3089C62.8753 23.3089 61.8936 23.0618 61.0423 22.5675C60.191 22.0732 59.5319 21.3798 59.065 20.4873C58.5982 19.581 58.3648 18.5306 58.3648 17.3361C58.3648 16.1278 58.5845 15.0773 59.0238 14.1848C59.477 13.2786 60.1292 12.5852 60.9805 12.1046C61.8318 11.6103 62.8341 11.3632 63.9875 11.3632C65.0173 11.3632 65.9098 11.5691 66.665 11.9811C67.4339 12.3792 68.0312 12.9285 68.4569 13.6287C68.8825 14.329 69.1366 15.1185 69.2189 15.9973H67.2829C67.2417 15.4481 67.0838 14.9469 66.8092 14.4938C66.5483 14.0269 66.1707 13.6562 65.6764 13.3816C65.1958 13.107 64.6329 12.9697 63.9875 12.9697C63.2323 12.9697 62.5732 13.155 62.0103 13.5258C61.4611 13.8965 61.0354 14.4114 60.7333 15.0705C60.445 15.7296 60.3008 16.4847 60.3008 17.3361C60.3008 18.2148 60.4587 18.9837 60.7745 19.6428C61.1041 20.3019 61.5434 20.8099 62.0927 21.1669C62.6556 21.5239 63.2872 21.7024 63.9875 21.7024C64.6191 21.7024 65.1684 21.5651 65.6352 21.2905C66.1158 21.0022 66.4934 20.6452 66.768 20.2195C67.0426 19.7939 67.2142 19.3545 67.2829 18.9014H69.2189C69.1091 19.6977 68.8345 20.4323 68.3951 21.1052C67.9557 21.778 67.3584 22.3135 66.6032 22.7117C65.8618 23.1098 64.9899 23.3089 63.9875 23.3089ZM76.0709 23.3089C75.0136 23.3089 74.0593 23.0755 73.208 22.6087C72.3567 22.1281 71.6839 21.4416 71.1896 20.5491C70.6953 19.6428 70.4481 18.5718 70.4481 17.3361C70.4481 16.1003 70.6953 15.0362 71.1896 14.1437C71.6839 13.2374 72.3567 12.5509 73.208 12.084C74.0593 11.6035 75.0136 11.3632 76.0709 11.3632C77.1281 11.3632 78.0824 11.6035 78.9337 12.084C79.785 12.5509 80.4578 13.2374 80.9522 14.1437C81.4465 15.0362 81.6936 16.1003 81.6936 17.3361C81.6936 18.5718 81.4465 19.6428 80.9522 20.5491C80.4578 21.4416 79.785 22.1281 78.9337 22.6087C78.0824 23.0755 77.1281 23.3089 76.0709 23.3089ZM76.0709 21.7024C76.7711 21.7024 77.3959 21.5377 77.9451 21.2081C78.5081 20.8649 78.9475 20.3706 79.2633 19.7252C79.5928 19.0661 79.7576 18.2697 79.7576 17.3361C79.7576 16.4024 79.5928 15.6128 79.2633 14.9675C78.9475 14.3084 78.5081 13.8141 77.9451 13.4846C77.3959 13.1413 76.7711 12.9697 76.0709 12.9697C75.3706 12.9697 74.739 13.1413 74.176 13.4846C73.6268 13.8141 73.1874 14.3084 72.8579 14.9675C72.5421 15.6128 72.3842 16.4024 72.3842 17.3361C72.3842 18.2697 72.5421 19.0661 72.8579 19.7252C73.1874 20.3706 73.6268 20.8649 74.176 21.2081C74.739 21.5377 75.3706 21.7024 76.0709 21.7024ZM88.3476 23.3089C87.4277 23.3089 86.5626 23.0755 85.7525 22.6087C84.9424 22.1418 84.2902 21.4622 83.7959 20.5697C83.3016 19.6634 83.0544 18.5856 83.0544 17.3361C83.0544 16.0866 83.3016 15.0156 83.7959 14.1231C84.2902 13.2168 84.9424 12.5303 85.7525 12.0634C86.5626 11.5966 87.4277 11.3632 88.3476 11.3632C89.3088 11.3632 90.1669 11.6103 90.9221 12.1046C91.6773 12.5852 92.2266 13.2443 92.5698 14.0819H92.611C92.5836 13.7935 92.5698 13.3816 92.5698 12.8461V6.9144H94.4235V23H92.5904V21.826C92.5904 21.2905 92.5973 20.8786 92.611 20.5902H92.5698C92.2266 21.4278 91.6773 22.0938 90.9221 22.5881C90.1669 23.0687 89.3088 23.3089 88.3476 23.3089ZM88.8007 21.7024C89.5422 21.7024 90.2013 21.5239 90.778 21.1669C91.3547 20.7962 91.8009 20.2813 92.1167 19.6222C92.4325 18.9494 92.5904 18.1874 92.5904 17.3361C92.5904 16.4847 92.4325 15.7296 92.1167 15.0705C91.8009 14.3977 91.3547 13.8828 90.778 13.5258C90.2013 13.155 89.5422 12.9697 88.8007 12.9697C88.0593 12.9697 87.4002 13.155 86.8235 13.5258C86.2468 13.8828 85.7937 14.3977 85.4642 15.0705C85.1483 15.7296 84.9904 16.4847 84.9904 17.3361C84.9904 18.1874 85.1483 18.9494 85.4642 19.6222C85.7937 20.2813 86.2468 20.7962 86.8235 21.1669C87.4002 21.5239 88.0593 21.7024 88.8007 21.7024ZM101.906 23.3089C100.807 23.3089 99.8322 23.0618 98.9809 22.5675C98.1433 22.0732 97.4911 21.3798 97.0242 20.4873C96.5711 19.581 96.3446 18.5306 96.3446 17.3361C96.3446 16.1415 96.578 15.0911 97.0448 14.1848C97.5117 13.2786 98.157 12.5852 98.9809 12.1046C99.8184 11.6103 100.78 11.3632 101.864 11.3632C102.88 11.3632 103.793 11.5829 104.604 12.0222C105.427 12.4479 106.073 13.0658 106.54 13.8759C107.006 14.686 107.24 15.6403 107.24 16.7388V17.9539H98.3012C98.3561 18.6679 98.5277 19.3133 98.8161 19.89C99.1182 20.4529 99.5301 20.8992 100.052 21.2287C100.587 21.5445 101.205 21.7024 101.906 21.7024C102.688 21.7024 103.361 21.5102 103.924 21.1257C104.501 20.7276 104.906 20.1921 105.139 19.5192H107.137C106.986 20.2607 106.663 20.9198 106.169 21.4965C105.688 22.0594 105.077 22.5057 104.336 22.8352C103.594 23.151 102.784 23.3089 101.906 23.3089ZM105.304 16.368C105.304 15.6952 105.167 15.1048 104.892 14.5968C104.617 14.075 104.226 13.6768 103.718 13.4022C103.21 13.1138 102.613 12.9697 101.926 12.9697C101.226 12.9697 100.622 13.1207 100.114 13.4228C99.6056 13.7111 99.2006 14.1093 98.8985 14.6174C98.6101 15.1254 98.4248 15.709 98.3424 16.368H105.304ZM110.801 8.58269H121.099L120.646 10.7041H113.149L112.305 14.6792H119.019L118.566 16.8006H111.852L110.534 23H107.732L110.801 8.58269ZM126.108 20.8786C125.6 21.7299 124.989 22.3547 124.275 22.7528C123.561 23.151 122.806 23.3501 122.009 23.3501C121.336 23.3501 120.732 23.2128 120.197 22.9382C119.675 22.6636 119.256 22.2723 118.94 21.7642C118.638 21.2425 118.487 20.6314 118.487 19.9312C118.487 18.7641 118.906 17.8441 119.744 17.1713C120.581 16.4847 121.748 16.1415 123.245 16.1415H125.366C126.067 16.1415 126.561 16.0042 126.849 15.7296C127.151 15.4412 127.303 15.0911 127.303 14.6792C127.303 14.281 127.158 13.9652 126.87 13.7317C126.582 13.4983 126.129 13.3816 125.511 13.3816C124.769 13.3816 124.158 13.5532 123.678 13.8965C123.211 14.2398 122.916 14.7203 122.792 15.3382H119.929C120.259 14.0475 120.904 13.0589 121.865 12.3724C122.84 11.6721 124.103 11.322 125.655 11.322C126.671 11.322 127.522 11.4867 128.209 11.8163C128.909 12.1321 129.396 12.6333 129.671 13.3198C129.959 13.9926 129.994 14.8439 129.774 15.8737L128.847 20.2607C128.792 20.4941 128.799 20.6589 128.868 20.755C128.95 20.8374 129.122 20.8786 129.383 20.8786H129.898L129.445 23H127.653C127.007 23 126.554 22.8352 126.293 22.5057C126.046 22.1762 125.971 21.7505 126.067 21.2287L126.149 20.8786H126.108ZM123.06 21.2493C123.595 21.2493 124.11 21.1189 124.604 20.858C125.099 20.5971 125.531 20.2127 125.902 19.7046C126.273 19.1828 126.54 18.5581 126.705 17.8304L126.911 16.8829H126.87C126.664 17.2262 126.383 17.494 126.026 17.6862C125.669 17.8647 125.174 17.9608 124.543 17.9745L123.451 18.0157C122.668 18.0295 122.099 18.2011 121.742 18.5306C121.398 18.8464 121.227 19.2446 121.227 19.7252C121.227 20.1921 121.391 20.5628 121.721 20.8374C122.05 21.112 122.497 21.2493 123.06 21.2493ZM135.882 23.3501C134.893 23.3501 134.035 23.1648 133.307 22.794C132.593 22.4233 132.037 21.8809 131.639 21.1669C131.254 20.4392 131.062 19.5742 131.062 18.5718C131.062 17.3223 131.35 16.1415 131.927 15.0293C132.504 13.9171 133.321 13.0246 134.378 12.3518C135.449 11.6652 136.671 11.322 138.044 11.322C139.074 11.322 139.946 11.5142 140.66 11.8987C141.388 12.2694 141.916 12.8118 142.246 13.5258C142.589 14.226 142.713 15.0499 142.617 15.9973H139.939C140.021 15.503 140.001 15.0636 139.877 14.6792C139.754 14.281 139.52 13.9652 139.177 13.7317C138.847 13.4983 138.415 13.3816 137.879 13.3816C137.028 13.3816 136.294 13.6768 135.676 14.2672C135.058 14.8439 134.591 15.5648 134.275 16.4298C133.959 17.2811 133.801 18.0844 133.801 18.8396C133.801 19.3888 133.891 19.8488 134.069 20.2195C134.248 20.5765 134.495 20.8443 134.811 21.0228C135.14 21.2013 135.531 21.2905 135.985 21.2905C136.52 21.2905 137.008 21.1738 137.447 20.9404C137.886 20.707 138.257 20.4117 138.559 20.0547C138.861 19.684 139.095 19.2996 139.259 18.9014H142.019C141.731 19.7664 141.298 20.5353 140.722 21.2081C140.159 21.8809 139.458 22.4096 138.621 22.794C137.797 23.1648 136.884 23.3501 135.882 23.3501ZM146.699 23C145.683 23 144.955 22.7185 144.516 22.1556C144.09 21.5789 143.98 20.7962 144.186 19.8076L146.576 8.58269H149.232L146.864 19.7046C146.781 20.1303 146.816 20.4323 146.967 20.6108C147.118 20.7893 147.427 20.8786 147.894 20.8786H150.097L149.644 23H146.699ZM143.733 11.6721H151.992L151.539 13.7935H143.28L143.733 11.6721ZM155.904 23.3501C154.957 23.3501 154.119 23.1716 153.392 22.8146C152.678 22.4439 152.115 21.9015 151.703 21.1875C151.305 20.4598 151.106 19.5879 151.106 18.5718C151.106 17.3223 151.401 16.1415 151.991 15.0293C152.582 13.9171 153.405 13.0246 154.463 12.3518C155.534 11.6652 156.735 11.322 158.067 11.322C159.014 11.322 159.845 11.5073 160.559 11.8781C161.287 12.2351 161.85 12.7774 162.248 13.5052C162.66 14.2192 162.866 15.0842 162.866 16.1003C162.866 17.3635 162.571 18.5512 161.98 19.6634C161.39 20.7756 160.559 21.6681 159.488 22.3409C158.431 23.0137 157.236 23.3501 155.904 23.3501ZM156.09 21.2905C156.941 21.2905 157.669 20.9953 158.273 20.4049C158.891 19.8145 159.351 19.0936 159.653 18.2423C159.969 17.3773 160.127 16.5534 160.127 15.7707C160.127 15.2352 160.031 14.789 159.838 14.432C159.66 14.075 159.399 13.8141 159.056 13.6493C158.726 13.4708 158.335 13.3816 157.882 13.3816C157.03 13.3816 156.296 13.6768 155.678 14.2672C155.074 14.8577 154.614 15.5854 154.298 16.4504C153.996 17.3017 153.845 18.1187 153.845 18.9014C153.845 19.4369 153.934 19.8831 154.113 20.2401C154.305 20.5971 154.566 20.8649 154.895 21.0434C155.239 21.2081 155.637 21.2905 156.09 21.2905ZM165.55 11.6721H168.104L167.733 13.464H167.774C168.172 12.8186 168.584 12.3587 169.01 12.084C169.449 11.8094 170.047 11.6721 170.802 11.6721H171.996L171.543 13.7935H170.081C169.271 13.7935 168.619 14.0338 168.124 14.5144C167.644 14.9812 167.3 15.6815 167.094 16.6152L165.735 23H163.14L165.55 11.6721ZM169.354 24.9978H172.526L174.236 22.3821L172.217 11.6721H174.874L176.11 19.3545H176.151L180.662 11.6721H183.586L174.606 26.3366C174.428 26.6387 174.236 26.8446 174.03 26.9545C173.824 27.0643 173.549 27.1192 173.206 27.1192H168.901L169.354 24.9978Z" fill="#060110"/>
</svg>
